<svg xmlns="http://www.w3.org/2000/svg" xmlns:xlink="http://www.w3.org/1999/xlink" width="269" zoomAndPan="magnify" viewBox="0 0 201.75 177.000001" height="236" preserveAspectRatio="xMidYMid meet" version="1.0"><defs><g/><clipPath id="f32d42c837"><path d="M 0.441406 0 L 201 0 L 201 175.410156 L 0.441406 175.410156 Z M 0.441406 0 " clip-rule="nonzero"/></clipPath><clipPath id="9e92477c88"><path d="M 8.390625 28.007812 C -7.863281 54.785156 3.585938 80.851562 17.976562 94.683594 L 102.117188 175.410156 L 184.484375 94.972656 C 197.867188 80.089844 202.996094 64.304688 200.148438 46.730469 C 196.210938 22.414062 176.175781 3.550781 151.425781 0.855469 C 136.246094 -0.777344 121.578125 3.519531 110.132812 13.03125 C 107.054688 15.589844 104.300781 18.449219 101.902344 21.558594 C 99.054688 18.019531 95.714844 14.78125 91.941406 11.910156 C 78.777344 1.90625 62.023438 -2.0625 45.933594 1.023438 C 30.691406 3.96875 17.011719 13.800781 8.390625 28.007812 Z M 8.390625 28.007812 " clip-rule="nonzero"/></clipPath></defs><g clip-path="url(#f32d42c837)"><g clip-path="url(#9e92477c88)"><path fill="#003063" d="M 0.441406 0 L 201.203125 0 L 201.203125 175.410156 L 0.441406 175.410156 Z M 0.441406 0 " fill-opacity="1" fill-rule="nonzero"/></g></g><g fill="#003063" fill-opacity="1"><g transform="translate(93.486148, 91.794201)"><g><path d="M 10.71875 0 L 10.3125 -1.96875 L 10.203125 -1.96875 C 9.515625 -1.101562 8.828125 -0.515625 8.140625 -0.203125 C 7.453125 0.0976562 6.597656 0.25 5.578125 0.25 C 4.203125 0.25 3.125 -0.101562 2.34375 -0.8125 C 1.570312 -1.519531 1.1875 -2.523438 1.1875 -3.828125 C 1.1875 -6.617188 3.421875 -8.082031 7.890625 -8.21875 L 10.234375 -8.296875 L 10.234375 -9.15625 C 10.234375 -10.238281 10 -11.035156 9.53125 -11.546875 C 9.0625 -12.066406 8.316406 -12.328125 7.296875 -12.328125 C 6.140625 -12.328125 4.832031 -11.972656 3.375 -11.265625 L 2.734375 -12.875 C 3.421875 -13.238281 4.171875 -13.523438 4.984375 -13.734375 C 5.796875 -13.953125 6.609375 -14.0625 7.421875 -14.0625 C 9.066406 -14.0625 10.285156 -13.691406 11.078125 -12.953125 C 11.878906 -12.222656 12.28125 -11.050781 12.28125 -9.4375 L 12.28125 0 Z M 6 -1.46875 C 7.300781 -1.46875 8.320312 -1.828125 9.0625 -2.546875 C 9.8125 -3.265625 10.1875 -4.265625 10.1875 -5.546875 L 10.1875 -6.796875 L 8.09375 -6.71875 C 6.425781 -6.65625 5.222656 -6.394531 4.484375 -5.9375 C 3.742188 -5.476562 3.375 -4.765625 3.375 -3.796875 C 3.375 -3.035156 3.601562 -2.457031 4.0625 -2.0625 C 4.519531 -1.664062 5.164062 -1.46875 6 -1.46875 Z M 6 -1.46875 "/></g></g></g></svg>